<svg xmlns="http://www.w3.org/2000/svg" width="228.889" height="130" viewBox="0 0 228.889 130"><path fill="#1A171B" d="M194.819 76.754h33.038V68.83h-23.468V58.321h21.09v-7.325h-21.09V41.81h22.98v-7.926h-32.551v42.87zM159.22 41.811h6.827c9.51 0 12.558 5.523 12.558 14.169 0 9.487-5.304 12.85-10.85 12.85h-8.535V41.811zm-9.569 34.943h18.774c13.288 0 19.749-9.246 19.749-21.675 0-14.23-8.473-21.194-19.749-21.194h-18.774v42.869zM118.564 41.21H126c4.449 0 8.412.96 8.412 6.424 0 5.463-3.963 6.424-8.412 6.424h-7.437V41.21zm-9.57 35.544h9.57V61.383h10.058c10.85 0 15.057-6.784 15.057-13.749s-4.207-13.75-15.057-13.75h-19.627v42.87z"/><linearGradient id="a" gradientUnits="userSpaceOnUse" x1="3.366" y1="63.624" x2="93.991" y2="63.624"><stop offset="0" stop-color="#3f5ba1"/><stop offset=".337" stop-color="#4960a4"/><stop offset="1" stop-color="#4461a5"/><stop offset="1" stop-color="#67c5e4"/></linearGradient><path fill="url(#a)" d="M79.12 64.003C65.302 48.732 59.364 49.104 53.576 48.277c-.478-.068-1.659-15.045 7.636-23.363 4.314-3.861 8.141-6.533 15.011-9.623 2.938-1.577-2.83-5.126-3.557-5.467-3.023-1.681-13.786-6.972-18.113-4.591-6.773 3.727-7.159 16.205-7.341 24.227-.143 6.309-.022 11.613.114 18.863-.205.204-1.294.253-1.295.318-1.516.304-2.577.483-4.091 1.091-3.091-19.544-.833-28.466-.091-31.908.615-2.852 4-10.909 2.364-12.908-1.909-1.545-15.909 3.454-18.818 9-1.832 3.492 1.182 14.363 5.364 23.09 2.276 4.751 4.963 9.419 8.09 13.636l-4.636 3.545c-1.091-.364-8.864-8.363-13.272-27.454-.464-2.01-.908-3.638-1.538-6.458-.821-4.081-14.311 11.094-11.227 15.956 4.563 7.198 9.729 10.77 13.946 14.137 3.784 3.021 7.604 5.087 9.713 6.675l-1.44 3.733c-5.818-1.318-9.317-3.783-13.5-6.771-6.363-4.546-9.772-10.273-11.317-9.728-1.854.654-3.391 11.535-.955 16.408 1.772 3.545 8.487 3.569 10.5 3.772 4.045.409 9 .318 11.363.364.591.011 1.409-.045 2.857.054l.052 6.4c-2.364.137-4.681.137-8.909.137-5.863 0-12.09-.591-12.454.228-.669 1.505 2.483 6.862 3.5 8.045 2.227 2.591 5.318 2.636 9.045.636 2.857-1.532 4.454-2.74 6.772-4.045.728-.409 2.455-1.5 2.545-1.273.47 1.272.955 2.849 1.279 4.273-4.87 3.727-6.734 4.636-10.552 6.318-.725.318-2.818.863-1.818 2.136 4.167 4.425 6.53 5.818 11.56.122l3.455-3.879s2.121 2.727 3.03 3.757c.909 1.031 3.455 3.151 4.788 3.939 1.333.788 2.364 1.394 3.697 2 1.333.605 3.421 1.301 3.801 1.59s-.65.471-2.771.896c-2.122.424-7.212 1.15-10.909 1.272-3.697.121-8.484-.425-9.454 0-.969.424-1.575 1.047-2.606 2.363-1.09 1.394-2.605 3.515-2.242 4 .364.484 2.121.666 3.757.728 1.637.06 7.212-.425 9.455-.85 3.975-.752 8.054-1.652 11.03-2.545 3.636-1.091 8.18-2.608 12.423-4.424.424-.182 3.273-.096 4.243-.061 1.697.061 3.818-.121 4.242.061.424.183-5.272 4.06-8.363 5.636-1.256.641-8.061 3.697-11.878 4.849s-6.667 1.818-10.969 2.424c-3.769.531-9.333.697-11.939.728-2.576.03-6.974-.389-8.545.061-.849.243-2.667 2-4.121 3.879-.625.807-3.212 4.181-3.939 6.848-1.067 3.913 22.727-.121 41.392-8.758 7.839-3.627 18.273-9.424 25.908-15.362 3.273-2.545 11.727-10.182 13.363-16.454 3.773-14.465-2.968-24.388-4.908-29.09-5.364-12.999-1.939-17.181 10.272-16.363 1.482.1 3.888-3.519-5.454-12.545-5.363-5.181-14.862-7.243-19.908.545-4.182 6.454.941 14.722 4.454 19.363 9.909 13.09 7.545 21.544 7.545 21.544h-.092z"/><path fill="#FFF" d="M79.681 26.654c.577.02 1.22-.571 1.269-1.167.046-.56-.313-1.261-1.208-1.278-.578-.012-1.225.579-1.261 1.161-.038.602.58 1.263 1.2 1.284"/><linearGradient id="b" gradientUnits="userSpaceOnUse" x1=".899" y1="63.563" x2="100.749" y2="63.563"><stop offset="0" stop-color="#3f5ba1"/><stop offset=".337" stop-color="#4960a4"/><stop offset="1" stop-color="#4461a5"/><stop offset="1" stop-color="#67c5e4"/></linearGradient><path fill="none" stroke="url(#b)" stroke-width="1.258" stroke-miterlimit="10" d="M73.873 7.697c-5.486-3.335-13.23-6.237-19.22-4.731-7.357 1.85-10.895 17.676-8.531 43.857l-2.727.727c-.527-4.669-1.958-16.295-.636-23.909 2.635-15.181 7.796-21.828-.547-20.817-6 .728-12.798 3.923-17.09 8.363-5.273 5.455 1.909 25.181 11.636 38.908l-2.455 2c-2.279-3.002-7.151-11.272-9.817-19.636-3.354-10.52-2.545-18.787-7.818-14.545-6.264 5.04-9.337 9.556-10.969 15.151-1.697 5.817 15.757 19.271 24.514 24.483l-.637 1.818c-3.62-1.051-6.802-3.15-11.636-7.03-8.605-6.907-12.484-13.453-14.772-7.883-1.681 4.091-2.243 11.571-.863 15.884 1.939 6.06 12.121 7.03 25.575 6.303l.201 2.805c-3.753.353-5.724-.054-9.897-.017-1.006.008-4.104-.054-7.433-.074-3.785-.022-4.988-.417-4.698 1.87.479 3.763 2.03 7.251 4.493 10.284 4.254 5.239 10.398.98 18.493-4.652l.902 2.026c-.879.486-5.576 3.394-8.909 4.969-3.422 1.618-5.809 1.962-4.363 3.758 2 2.485 3.572 3.84 6.061 5.333 3.939 2.364 6.605-1.938 11.151-6.424 0 0 1.03 2.667 4.303 4.849s6.261 3.531 6.261 3.531c-3.753.352-3.92.593-8.094.629-1.005.009-4.428.104-7.749-.149-4.417-.337-5 .924-6.476 2.695-1.688 2.024-5.615 7.344-2.583 8.085 3.708.908 13.713.161 22.573-2.021 7.958-1.96 14.7-5.116 16.359-6.026l3.647-.017c-16.544 10.485-33.049 10.301-37.223 10.337-1.005.009-4.429.104-7.749-.149-4.417-.337-5 .924-6.476 2.695-1.69 2.023-9.437 12.439-6.405 13.181 3.707.907 13.759.341 22.572-2.021 12.371-3.317 47.945-15.619 63.46-40.709 2.465-3.987 3.212-5.818 3.212-5.818s2.68-5.644 3.575-8.182c1.818-5.151 2.661-9.982 2.849-12.787.606-9.091-.424-14.485-1.152-16.969-1.523-5.206-4.057-9.927-6.788-13.075-1.73-1.994-8.167-8.863-13.986-8.373 0 0 1.833-.918 1.154-3.338-.727-2.592-5.292-5.189-5.292-5.189z"/><linearGradient id="c" gradientUnits="userSpaceOnUse" x1="54.428" y1="41.908" x2="78.082" y2="41.908"><stop offset="0" stop-color="#3f5ba1"/><stop offset=".337" stop-color="#4960a4"/><stop offset="1" stop-color="#4461a5"/><stop offset="1" stop-color="#67c5e4"/></linearGradient><path fill="none" stroke="url(#c)" stroke-width="1.258" stroke-miterlimit="10" d="M55.093 46.482s.501-7.267 1.331-9.962c.969-3.151 2.242-5.758 3.697-7.455s4-4.242 4-4.242-1.333 4.484-.242 8.484 2.857 6.258 5.575 9.576c8.242 10.06 8 16.605 8 16.605s-5.091-6.302-10.181-9.03c-4.656-2.493-12.18-3.976-12.18-3.976z"/><linearGradient id="d" gradientUnits="userSpaceOnUse" x1="81.064" y1="57.082" x2="96.876" y2="57.082"><stop offset="0" stop-color="#3f5ba1"/><stop offset=".337" stop-color="#4960a4"/><stop offset="1" stop-color="#4461a5"/><stop offset="1" stop-color="#67c5e4"/></linearGradient><path fill="none" stroke="url(#d)" stroke-width="1.258" stroke-miterlimit="10" d="M89.816 74.397s5.736-12.248 6.303-19.514c.728-9.333-1.697-17.211-5.637-17.938-2.458-.454-6.362 0-7.695 1.818-1.534 2.092-1.151 4.121-.667 6.788.485 2.666 3.603 8.08 5.575 13.03 2.97 7.453 2.121 15.816 2.121 15.816z"/></svg>